<svg width="45" height="63" viewBox="0 0 45 63" fill="none" xmlns="http://www.w3.org/2000/svg">
<mask id="mask0_2484_12744" style="mask-type:luminance" maskUnits="userSpaceOnUse" x="0" y="0" width="45" height="63">
<path d="M1.14062 0.5H44.3884V62.0245H1.14062V0.5Z" fill="white" stroke="white"/>
</mask>
<g mask="url(#mask0_2484_12744)">
<path d="M18.4863 58.1886L18.9579 58.1617V57.6894V52.7729H26.7712V57.6922V58.164L27.2422 58.1913C31.6488 58.4469 36.0503 59.0866 40.4483 60.1144V62.0028H5.07452V60.1157C9.55255 59.0844 14.0235 58.443 18.4863 58.1886ZM18.3695 31.2352H17.8695V31.2366H7.47704C7.47703 31.2313 7.47702 31.226 7.47702 31.2207V29.4526H18.3695C19.3737 29.4526 20.3002 28.725 20.3002 27.6943C20.3002 26.6633 19.3718 25.936 18.3695 25.936H7.47702V24.152H18.3695C19.3737 24.152 20.3002 23.4245 20.3002 22.3938C20.3002 21.3637 19.3714 20.6368 18.3695 20.6368H7.47702V18.8515H18.3695C19.3733 18.8515 20.3002 18.1242 20.3002 17.0946C20.3002 16.0635 19.3718 15.3363 18.3695 15.3363H7.47702V13.9939C7.47702 13.8465 7.48094 13.6984 7.48763 13.5495H18.3695C19.3733 13.5495 20.3002 12.8223 20.3002 11.7926C20.3002 10.7616 19.3718 10.0344 18.3695 10.0344H8.15641C10.0761 4.60946 15.8608 0.614746 22.7607 0.614746C29.6648 0.614746 35.4468 4.60925 37.3692 10.033H27.158C26.1526 10.033 25.2258 10.7602 25.2258 11.7913C25.2258 12.8216 26.1549 13.5482 27.158 13.5482H38.0383C38.045 13.6967 38.0489 13.8446 38.0489 13.9926V15.3349H27.158C26.153 15.3349 25.2258 16.0618 25.2258 17.0918C25.2258 18.1232 26.1546 18.8501 27.158 18.8501H38.0489V20.6341H27.158C26.1526 20.6341 25.2258 21.3613 25.2258 22.3924C25.2258 23.4238 26.1546 24.1507 27.158 24.1507H38.0489V25.9347H27.158C26.1526 25.9347 25.2258 26.6619 25.2258 27.6929C25.2258 28.7243 26.1546 29.4512 27.158 29.4512H38.0489V31.218C38.0489 31.2238 38.0489 31.2295 38.0489 31.2352H27.158C26.1526 31.2352 25.2258 31.9625 25.2258 32.9935C25.2258 34.0238 26.1549 34.7504 27.158 34.7504H37.5068C35.7441 40.3932 29.8455 44.5985 22.7638 44.5985C15.6803 44.5985 9.78032 40.393 8.0204 34.7504H18.3695C19.3733 34.7504 20.3002 34.0232 20.3002 32.9935C20.3002 31.9625 19.3718 31.2352 18.3695 31.2352ZM42.2171 31.2207V28.6856H44.3807V31.218C44.3807 41.6073 34.7439 50.1666 22.7607 50.1666C10.7775 50.1666 1.14062 41.6073 1.14062 31.218V28.6856H3.30882V31.218C3.30882 40.7413 12.0984 48.3839 22.7638 48.3839C33.4275 48.3839 42.2171 40.7441 42.2171 31.2207Z" fill="white" stroke="black"/>
</g>
</svg>
