<svg width="55" height="49" viewBox="0 0 55 49" fill="none" xmlns="http://www.w3.org/2000/svg">
<mask id="mask0_1_6923" style="mask-type:luminance" maskUnits="userSpaceOnUse" x="0" y="1" width="54" height="48">
<path d="M0 1.85229H53.4246V48.9687H0V1.85229Z" fill="white"/>
</mask>
<g mask="url(#mask0_1_6923)">
<path fill-rule="evenodd" clip-rule="evenodd" d="M5.86232 1.96118C2.62492 1.96118 0 4.59169 0 7.83746V32.064C0 35.3098 2.62492 37.9403 5.86232 37.9403H31.9607L44.175 48.6754C44.5082 48.9686 45.0257 48.6885 44.9643 48.2491L43.529 37.9403H47.3556C50.5939 37.9403 53.2188 35.3098 53.2188 32.064V7.83746C53.2188 4.59169 50.5939 1.96118 47.3556 1.96118H5.86232Z" fill="black"/>
</g>
<mask id="mask1_1_6923" style="mask-type:luminance" maskUnits="userSpaceOnUse" x="1" y="0" width="54" height="48">
<path d="M1.47852 0H54.8556V47.1275H1.47852V0Z" fill="white"/>
</mask>
<g mask="url(#mask1_1_6923)">
<path d="M7.39357 0.114502C4.15617 0.114502 1.53125 2.74501 1.53125 5.99078V30.2173C1.53125 33.4631 4.15617 36.0936 7.39357 36.0936H33.492L45.7062 46.8288C46.0404 47.122 46.5579 46.8418 46.4956 46.4024L45.0602 36.0936H48.8878C52.1252 36.0936 54.7501 33.4631 54.7501 30.2173V5.99078C54.7501 2.74501 52.1252 0.114502 48.8878 0.114502H7.39357Z" fill="white"/>
</g>
<mask id="mask2_1_6923" style="mask-type:luminance" maskUnits="userSpaceOnUse" x="0" y="0" width="55" height="49">
<path d="M0.0488281 0H54.8677V48.319H0.0488281V0Z" fill="white"/>
</mask>
<g mask="url(#mask2_1_6923)">
<path d="M7.39357 0.114502C4.15617 0.114502 1.53125 2.74501 1.53125 5.99079V30.2173C1.53125 33.4631 4.15617 36.0936 7.39357 36.0936H33.492L45.7062 46.8288C46.0404 47.122 46.5579 46.8418 46.4956 46.4024L45.0602 36.0936H48.8878C52.1252 36.0936 54.7501 33.4631 54.7501 30.2173V5.99079C54.7501 2.74501 52.1252 0.114502 48.8878 0.114502H7.39357Z" stroke="black" stroke-width="1.28119"/>
</g>
</svg>
