<svg width="56" height="55" viewBox="0 0 56 55" fill="none" xmlns="http://www.w3.org/2000/svg">
<path fill-rule="evenodd" clip-rule="evenodd" d="M27.7431 0.244873C42.8756 0.244873 55.1424 12.4559 55.1424 27.5195C55.1424 42.5813 42.8756 54.7941 27.7431 54.7941C12.6124 54.7941 0.34375 42.5813 0.34375 27.5195C0.34375 12.4559 12.6124 0.244873 27.7431 0.244873ZM12.1315 17.7749H34.2537C35.4908 17.7749 36.5044 18.7838 36.5044 20.0153V24.1704C36.5044 24.2914 36.5687 24.3947 36.676 24.4498C36.785 24.5032 36.9066 24.4925 37.0031 24.4213L43.941 19.2963C44.2664 19.0561 44.6722 19.0223 45.0333 19.2038C45.3944 19.3835 45.6071 19.7288 45.6071 20.1309V35.1002C45.6071 35.5024 45.3944 35.8476 45.0333 36.0291C44.6722 36.2088 44.2664 36.1733 43.941 35.9348L37.0031 30.8098C36.9066 30.7386 36.785 30.7279 36.676 30.7831C36.5687 30.8365 36.5044 30.9397 36.5044 31.0607V35.0219C36.5044 36.2551 35.4908 37.2623 34.2537 37.2623H12.1315C10.8927 37.2623 9.88087 36.2551 9.88087 35.0219V20.0153C9.88087 18.7838 10.8927 17.7749 12.1315 17.7749Z" fill="white"/>
</svg>
