<svg width="44" height="49" viewBox="0 0 44 49" fill="none" xmlns="http://www.w3.org/2000/svg">
<mask id="mask0_1_6944" style="mask-type:luminance" maskUnits="userSpaceOnUse" x="14" y="0" width="9" height="17">
<path d="M14.1602 0H22.6128V16.6832H14.1602V0Z" fill="white"/>
</mask>
<g mask="url(#mask0_1_6944)">
<path d="M14.1816 2.05882L17.9556 0.000976562C17.9556 0.000976562 20.7737 6.07051 21.2269 8.47752C21.6792 10.8854 22.4229 15.8281 22.4229 15.8281L22.4997 16.5785H21.0461C20.6201 13.8999 19.4885 7.68508 17.9176 5.95577C15.8986 3.73201 14.1816 2.05882 14.1816 2.05882Z" fill="#557384"/>
</g>
<path d="M21.935 16.4479C21.935 16.4479 21.7071 16.0039 21.5957 15.8239C22.3138 13.2823 23.2945 8.33626 24.3552 6.49055C25.4654 4.56148 28.6582 2.43512 31.6934 2.27663C34.7286 2.11897 40.0643 0.539062 40.0643 0.539062C40.0643 0.539062 37.3461 6.76708 36.6717 8.74733C35.9973 10.7276 33.1206 13.9212 30.986 14.5527C28.8514 15.185 22.4517 16.4347 21.935 16.4479Z" fill="#00D900"/>
<mask id="mask1_1_6944" style="mask-type:luminance" maskUnits="userSpaceOnUse" x="0" y="11" width="44" height="38">
<path d="M0 11.189H43.9535V48.6553H0V11.189Z" fill="white"/>
</mask>
<g mask="url(#mask1_1_6944)">
<path d="M21.9674 48.6594C15.9837 43.6267 -1.28716 32.9239 0.201953 21.3321C2.07737 6.73239 19.2376 10.5517 21.9674 16.4653C24.698 10.5517 41.8583 6.73239 43.7337 21.3321C45.2228 32.9239 27.9519 43.6267 21.9674 48.6594Z" fill="#FF0000"/>
</g>
<path d="M15.1452 33.7981C15.5266 34.9876 15.5233 36.1887 14.1506 36.6286C12.777 37.0686 11.1542 36.7087 10.7728 35.5192C10.3907 34.3289 10.5954 32.8802 11.9689 32.4403C13.3416 32.0003 14.7639 32.6078 15.1452 33.7981ZM9.1855 21.5105C10.7027 18.8319 12.8422 14.0691 8.81735 14.6279C0.478657 15.7852 3.811 28.6581 8.51358 31.3548C13.2162 34.0507 7.66832 24.1899 9.1855 21.5105Z" fill="#FF7F7F"/>
</svg>
