<svg width="79" height="91" viewBox="0 0 79 91" fill="none" xmlns="http://www.w3.org/2000/svg">
<mask id="mask0_2461_295986" style="mask-type:luminance" maskUnits="userSpaceOnUse" x="16" y="0" width="45" height="63">
<path d="M17.1406 0.5H60.3884V62.0245H17.1406V0.5Z" fill="white" stroke="white"/>
</mask>
<g mask="url(#mask0_2461_295986)">
<path d="M34.4863 58.1884L34.9579 58.1615V57.6892V52.7726H42.7712V57.6919V58.1638L43.2422 58.1911C47.6488 58.4467 52.0503 59.0863 56.4483 60.1141V62.0025H21.0745V60.1155C25.5526 59.0842 30.0235 58.4428 34.4863 58.1884ZM34.3695 31.235H33.8695V31.2364H23.477C23.477 31.2311 23.477 31.2258 23.477 31.2205V29.4523H34.3695C35.3737 29.4523 36.3002 28.7248 36.3002 27.6941C36.3002 26.663 35.3718 25.9358 34.3695 25.9358H23.477V24.1518H34.3695C35.3737 24.1518 36.3002 23.4242 36.3002 22.3935C36.3002 21.3635 35.3714 20.6366 34.3695 20.6366H23.477V18.8512H34.3695C35.3733 18.8512 36.3002 18.124 36.3002 17.0943C36.3002 16.0633 35.3718 15.336 34.3695 15.336H23.477V13.9937C23.477 13.8462 23.4809 13.6982 23.4876 13.5493H34.3695C35.3733 13.5493 36.3002 12.8221 36.3002 11.7924C36.3002 10.7613 35.3718 10.0341 34.3695 10.0341H24.1564C26.0761 4.60921 31.8608 0.614502 38.7607 0.614502C45.6648 0.614502 51.4468 4.609 53.3692 10.0328H43.158C42.1526 10.0328 41.2258 10.76 41.2258 11.791C41.2258 12.8214 42.1549 13.5479 43.158 13.5479H54.0383C54.045 13.6965 54.0489 13.8444 54.0489 13.9923V15.3347H43.158C42.153 15.3347 41.2258 16.0616 41.2258 17.0916C41.2258 18.1229 42.1546 18.8499 43.158 18.8499H54.0489V20.6339H43.158C42.1526 20.6339 41.2258 21.3611 41.2258 22.3921C41.2258 23.4235 42.1546 24.1504 43.158 24.1504H54.0489V25.9344H43.158C42.1526 25.9344 41.2258 26.6617 41.2258 27.6927C41.2258 28.7241 42.1546 29.451 43.158 29.451H54.0489V31.2178C54.0489 31.2235 54.0489 31.2293 54.0489 31.235H43.158C42.1526 31.235 41.2258 31.9622 41.2258 32.9933C41.2258 34.0236 42.1549 34.7502 43.158 34.7502H53.5068C51.7441 40.393 45.8455 44.5983 38.7638 44.5983C31.6803 44.5983 25.7803 40.3928 24.0204 34.7502H34.3695C35.3733 34.7502 36.3002 34.0229 36.3002 32.9933C36.3002 31.9622 35.3718 31.235 34.3695 31.235ZM58.2171 31.2205V28.6854H60.3807V31.2178C60.3807 41.607 50.7439 50.1664 38.7607 50.1664C26.7775 50.1664 17.1406 41.607 17.1406 31.2178V28.6854H19.3088V31.2178C19.3088 40.7411 28.0984 48.3837 38.7638 48.3837C49.4275 48.3837 58.2171 40.7439 58.2171 31.2205Z" fill="white" stroke="black"/>
</g>
<path d="M23.2852 73.448C23.2852 73.8035 23.2533 74.127 23.1895 74.4187C23.1302 74.7058 23.0345 74.9701 22.9023 75.2117C22.7702 75.4532 22.5993 75.6765 22.3896 75.8816C22.18 76.0867 21.9271 76.2826 21.6309 76.4695L23.2578 79.3679L20.1816 79.9695L19.1289 77.0574L18.2812 77.0847L18.1582 79.9285H15.2188C15.2415 78.8894 15.262 77.8549 15.2803 76.825C15.3031 75.795 15.3281 74.7605 15.3555 73.7214C15.3646 73.1973 15.3737 72.6778 15.3828 72.1628C15.3919 71.6479 15.4102 71.1283 15.4375 70.6042C15.7565 70.4858 16.071 70.3878 16.3809 70.3103C16.6908 70.2328 17.0007 70.1736 17.3105 70.1326C17.625 70.087 17.9417 70.0574 18.2607 70.0437C18.5843 70.0255 18.9147 70.0164 19.252 70.0164C19.7715 70.0164 20.2728 70.0893 20.7559 70.2351C21.2435 70.3764 21.6742 70.5906 22.0479 70.8777C22.4215 71.1648 22.7201 71.5225 22.9434 71.9509C23.1712 72.3793 23.2852 72.8783 23.2852 73.448ZM20.2227 73.6667C20.2227 73.4753 20.1953 73.2999 20.1406 73.1404C20.0905 72.9809 20.013 72.8442 19.9082 72.7302C19.8079 72.6117 19.6803 72.5206 19.5254 72.4568C19.375 72.3884 19.1973 72.3542 18.9922 72.3542C18.901 72.3542 18.8122 72.3611 18.7256 72.3748C18.639 72.3839 18.5547 72.3998 18.4727 72.4226L18.3633 74.9656H18.5273C18.7233 74.9656 18.9215 74.9405 19.1221 74.8904C19.3271 74.8403 19.5094 74.7628 19.6689 74.658C19.833 74.5531 19.9652 74.4187 20.0654 74.2546C20.1702 74.0906 20.2227 73.8946 20.2227 73.6667ZM31.3242 74.5144C31.3242 74.9109 31.2969 75.3074 31.2422 75.7039C30.4629 75.754 29.6882 75.836 28.918 75.95C28.1478 76.0593 27.3776 76.1687 26.6074 76.2781C26.7259 76.6062 26.9105 76.8682 27.1611 77.0642C27.4163 77.2602 27.7194 77.3582 28.0703 77.3582C28.2526 77.3582 28.4508 77.324 28.665 77.2556C28.8838 77.1873 29.1003 77.1029 29.3145 77.0027C29.5286 76.8979 29.7337 76.7862 29.9297 76.6677C30.1257 76.5492 30.2943 76.4421 30.4355 76.3464L30.1074 79.45C29.9297 79.5867 29.736 79.7029 29.5264 79.7986C29.3213 79.8943 29.1071 79.9718 28.8838 80.031C28.6605 80.0903 28.4349 80.1335 28.207 80.1609C27.9792 80.1882 27.7559 80.2019 27.5371 80.2019C27.0859 80.2019 26.6735 80.1404 26.2998 80.0173C25.9261 79.8943 25.5866 79.7234 25.2812 79.5046C24.9805 79.2813 24.7161 79.0193 24.4883 78.7185C24.2604 78.4177 24.0713 78.0896 23.9209 77.7341C23.7705 77.3787 23.6566 77.0027 23.5791 76.6062C23.5016 76.2097 23.4629 75.8087 23.4629 75.4031C23.4629 74.9792 23.5016 74.5554 23.5791 74.1316C23.6566 73.7078 23.7728 73.2999 23.9277 72.908C24.0872 72.516 24.2855 72.1537 24.5225 71.821C24.764 71.4838 25.0443 71.1899 25.3633 70.9392C25.6823 70.6886 26.0423 70.4926 26.4434 70.3513C26.849 70.21 27.2956 70.1394 27.7832 70.1394C28.1888 70.1394 28.5579 70.1964 28.8906 70.3103C29.2279 70.4197 29.5264 70.5746 29.7861 70.7751C30.0505 70.9711 30.2783 71.2058 30.4697 71.4792C30.6657 71.7527 30.8252 72.0535 30.9482 72.3816C31.0758 72.7052 31.1693 73.0492 31.2285 73.4138C31.2923 73.7738 31.3242 74.1407 31.3242 74.5144ZM28.5898 74.1589C28.5898 74.0313 28.5762 73.9014 28.5488 73.7693C28.5215 73.6326 28.4759 73.5095 28.4121 73.4001C28.3529 73.2908 28.2731 73.2019 28.1729 73.1335C28.0726 73.0606 27.9473 73.0242 27.7969 73.0242C27.6146 73.0242 27.4528 73.0743 27.3115 73.1746C27.1748 73.2703 27.0563 73.3933 26.9561 73.5437C26.8558 73.6895 26.7738 73.849 26.71 74.0222C26.6462 74.1954 26.5983 74.3549 26.5664 74.5007L28.5898 74.3093V74.1589ZM38.2969 70.7L38.0508 73.5847C37.9186 73.5483 37.7887 73.5232 37.6611 73.5095C37.5335 73.4958 37.4036 73.489 37.2715 73.489C36.9479 73.489 36.638 73.53 36.3418 73.6121C36.0501 73.6941 35.7904 73.8194 35.5625 73.988C35.3392 74.1567 35.1592 74.3708 35.0225 74.6306C34.8903 74.8858 34.8242 75.1889 34.8242 75.5398C34.8242 75.795 34.8607 76.0183 34.9336 76.2097C35.0111 76.3966 35.1182 76.5538 35.2549 76.6814C35.3962 76.8044 35.5648 76.8979 35.7607 76.9617C35.9613 77.0255 36.1823 77.0574 36.4238 77.0574C36.5924 77.0574 36.7656 77.0414 36.9434 77.0095C37.1211 76.9731 37.2988 76.9252 37.4766 76.866C37.6543 76.8067 37.8252 76.7384 37.9893 76.6609C38.1533 76.5834 38.306 76.5014 38.4473 76.4148L38.3379 79.6277C38.1602 79.7188 37.9688 79.8009 37.7637 79.8738C37.5586 79.9421 37.3467 80.0014 37.1279 80.0515C36.9137 80.1062 36.6973 80.1472 36.4785 80.1746C36.2643 80.2019 36.0592 80.2156 35.8633 80.2156C35.2161 80.2156 34.626 80.0948 34.0928 79.8533C33.5641 79.6117 33.1084 79.2836 32.7256 78.8689C32.3473 78.4496 32.0534 77.9643 31.8438 77.4128C31.6341 76.8614 31.5293 76.2735 31.5293 75.6492C31.5293 74.9018 31.6341 74.2045 31.8438 73.5574C32.0579 72.9102 32.3701 72.3497 32.7803 71.8757C33.195 71.3972 33.7054 71.0235 34.3115 70.7546C34.9222 70.4812 35.6217 70.3445 36.4102 70.3445C36.7246 70.3445 37.0436 70.3695 37.3672 70.4197C37.6908 70.4698 38.0007 70.5632 38.2969 70.7ZM47.2793 74.8015C47.2793 75.2162 47.2314 75.6173 47.1357 76.0046C47.04 76.3875 46.901 76.7475 46.7188 77.0847C46.541 77.422 46.3223 77.7319 46.0625 78.0144C45.8073 78.2924 45.5179 78.5317 45.1943 78.7322C44.8753 78.9327 44.5267 79.0899 44.1484 79.2039C43.7702 79.3132 43.3691 79.3679 42.9453 79.3679C42.5352 79.3679 42.1432 79.3155 41.7695 79.2107C41.4004 79.1059 41.054 78.96 40.7305 78.7732C40.4069 78.5818 40.113 78.3539 39.8486 78.0896C39.5889 77.8207 39.3656 77.5245 39.1787 77.2009C38.9964 76.8728 38.8529 76.5219 38.748 76.1482C38.6478 75.7745 38.5977 75.3848 38.5977 74.9792C38.5977 74.5828 38.6455 74.1954 38.7412 73.8171C38.8369 73.4343 38.9736 73.0743 39.1514 72.7371C39.3337 72.3998 39.5524 72.0899 39.8076 71.8074C40.0628 71.5248 40.3477 71.281 40.6621 71.0759C40.9811 70.8708 41.3252 70.7113 41.6943 70.5974C42.0635 70.4835 42.4531 70.4265 42.8633 70.4265C43.5241 70.4265 44.1257 70.5291 44.668 70.7341C45.2148 70.9392 45.6797 71.2332 46.0625 71.616C46.4499 71.9942 46.7484 72.4545 46.958 72.9968C47.1722 73.5346 47.2793 74.1361 47.2793 74.8015ZM44.2441 74.9792C44.2441 74.7833 44.2145 74.5942 44.1553 74.4119C44.1006 74.225 44.0186 74.061 43.9092 73.9197C43.7998 73.7738 43.6631 73.6576 43.499 73.571C43.3395 73.4799 43.1549 73.4343 42.9453 73.4343C42.7311 73.4343 42.5397 73.4731 42.3711 73.5505C42.2025 73.628 42.0566 73.7351 41.9336 73.8718C41.8151 74.004 41.724 74.1612 41.6602 74.3435C41.5964 74.5212 41.5645 74.7104 41.5645 74.9109C41.5645 75.1023 41.5918 75.2937 41.6465 75.4851C41.7012 75.6765 41.7832 75.8497 41.8926 76.0046C42.002 76.1596 42.1364 76.2849 42.2959 76.3806C42.46 76.4763 42.6491 76.5242 42.8633 76.5242C43.0775 76.5242 43.2689 76.4832 43.4375 76.4011C43.6107 76.3145 43.7565 76.2006 43.875 76.0593C43.9935 75.9135 44.0846 75.7472 44.1484 75.5603C44.2122 75.3735 44.2441 75.1798 44.2441 74.9792ZM55.7695 73.448C55.7695 73.8035 55.7376 74.127 55.6738 74.4187C55.6146 74.7058 55.5189 74.9701 55.3867 75.2117C55.2546 75.4532 55.0837 75.6765 54.874 75.8816C54.6644 76.0867 54.4115 76.2826 54.1152 76.4695L55.7422 79.3679L52.666 79.9695L51.6133 77.0574L50.7656 77.0847L50.6426 79.9285H47.7031C47.7259 78.8894 47.7464 77.8549 47.7646 76.825C47.7874 75.795 47.8125 74.7605 47.8398 73.7214C47.849 73.1973 47.8581 72.6778 47.8672 72.1628C47.8763 71.6479 47.8945 71.1283 47.9219 70.6042C48.2409 70.4858 48.5553 70.3878 48.8652 70.3103C49.1751 70.2328 49.485 70.1736 49.7949 70.1326C50.1094 70.087 50.4261 70.0574 50.7451 70.0437C51.0687 70.0255 51.3991 70.0164 51.7363 70.0164C52.2559 70.0164 52.7572 70.0893 53.2402 70.2351C53.7279 70.3764 54.1585 70.5906 54.5322 70.8777C54.9059 71.1648 55.2044 71.5225 55.4277 71.9509C55.6556 72.3793 55.7695 72.8783 55.7695 73.448ZM52.707 73.6667C52.707 73.4753 52.6797 73.2999 52.625 73.1404C52.5749 72.9809 52.4974 72.8442 52.3926 72.7302C52.2923 72.6117 52.1647 72.5206 52.0098 72.4568C51.8594 72.3884 51.6816 72.3542 51.4766 72.3542C51.3854 72.3542 51.2965 72.3611 51.21 72.3748C51.1234 72.3839 51.0391 72.3998 50.957 72.4226L50.8477 74.9656H51.0117C51.2077 74.9656 51.4059 74.9405 51.6064 74.8904C51.8115 74.8403 51.9938 74.7628 52.1533 74.658C52.3174 74.5531 52.4495 74.4187 52.5498 74.2546C52.6546 74.0906 52.707 73.8946 52.707 73.6667ZM63.9932 74.6101C63.9932 75.2481 63.9111 75.8201 63.7471 76.3259C63.583 76.8318 63.3529 77.2807 63.0566 77.6726C62.765 78.06 62.4163 78.3904 62.0107 78.6638C61.6051 78.9373 61.1608 79.1628 60.6777 79.3406C60.1947 79.5138 59.6797 79.6414 59.1328 79.7234C58.5905 79.8054 58.0322 79.8464 57.458 79.8464C57.2438 79.8464 57.0342 79.8419 56.8291 79.8328C56.624 79.8191 56.4144 79.8009 56.2002 79.7781L56.3916 70.8777C56.8929 70.7182 57.4079 70.6065 57.9365 70.5427C58.4697 70.4744 58.9984 70.4402 59.5225 70.4402C60.1742 70.4402 60.7734 70.5313 61.3203 70.7136C61.8672 70.8959 62.3389 71.1648 62.7354 71.5203C63.1318 71.8712 63.4395 72.3064 63.6582 72.8259C63.8815 73.3409 63.9932 73.9356 63.9932 74.6101ZM59.3447 77.2351C59.6182 77.1941 59.8665 77.1121 60.0898 76.989C60.3177 76.8614 60.5137 76.7065 60.6777 76.5242C60.8418 76.3373 60.9671 76.1277 61.0537 75.8953C61.1449 75.6583 61.1904 75.4076 61.1904 75.1433C61.1904 74.8835 61.1631 74.642 61.1084 74.4187C61.0537 74.1908 60.9648 73.9949 60.8418 73.8308C60.7188 73.6622 60.557 73.53 60.3564 73.4343C60.1559 73.3341 59.9098 73.2794 59.6182 73.2703L59.3447 77.2351Z" fill="white"/>
</svg>
