<svg width="50" height="46" viewBox="0 0 50 46" fill="none" xmlns="http://www.w3.org/2000/svg">
<mask id="mask0_1_6939" style="mask-type:luminance" maskUnits="userSpaceOnUse" x="0" y="0" width="50" height="46">
<path d="M0 0H49.7834V45.9688H0V0Z" fill="white"/>
</mask>
<g mask="url(#mask0_1_6939)">
<path d="M1.31378 45.9822C1.27303 45.9822 1.23143 45.9788 1.19068 45.972C0.8706 45.9202 0.617595 45.6732 0.559013 45.3548C0.474961 44.9006 -0.242451 40.771 0.497885 35.4884C0.919842 32.4838 1.73234 29.6388 2.91332 27.0332C4.37616 23.8061 6.41293 20.9313 8.96845 18.4896C14.6483 13.0619 21.2553 11.2475 26.0259 10.7101V0.828488C26.0259 0.521996 26.2084 0.245219 26.4895 0.123811C26.7713 0.00240228 27.0982 0.0601349 27.3206 0.270689L49.5536 21.2531C49.7073 21.3983 49.7948 21.6003 49.7948 21.8117C49.7948 22.0232 49.7073 22.2252 49.5536 22.3695L27.3206 43.3537C27.0982 43.5642 26.7713 43.6219 26.4895 43.5005C26.2084 43.3791 26.0259 43.1024 26.0259 42.7959V31.0736C21.6866 31.161 17.5672 32.1909 13.7679 34.1394C7.15412 37.5312 3.54668 42.767 1.98535 45.5866C1.84866 45.8328 1.58971 45.9822 1.31378 45.9822Z" fill="white"/>
</g>
</svg>
